<?xml version="1.0" encoding="iso-8859-1"?>
<!-- Uploaded to: SVG Repo, www.svgrepo.com, Generator: SVG Repo Mixer Tools -->
<!DOCTYPE svg PUBLIC "-//W3C//DTD SVG 1.1//EN" "http://www.w3.org/Graphics/SVG/1.1/DTD/svg11.dtd">
<svg fill="#000000" height="800px" width="800px" version="1.1" id="Capa_1" xmlns="http://www.w3.org/2000/svg" xmlns:xlink="http://www.w3.org/1999/xlink" 
	 viewBox="0 0 476.8 476.8" xml:space="preserve">
<path d="M476.8,278.71c0,4.418-3.582,8-8,8c-25.123,0-38.329-7.37-49.981-13.871c-10.914-6.091-21.224-11.843-42.184-11.843
	c-4.418,0-8-3.582-8-8c0-4.418,3.582-8,8-8c25.122,0,38.328,7.369,49.98,13.871c10.914,6.09,21.224,11.843,42.185,11.843
	C473.218,270.71,476.8,274.292,476.8,278.71z M172.8,246.737v-64.265c-9.135,2.205-15.76,5.89-22.669,9.746
	c-11.651,6.502-24.856,13.871-49.977,13.871c-25.12,0-38.325-7.369-49.975-13.871C39.265,186.128,28.957,180.376,8,180.376
	c-4.418,0-8-3.582-8-8s3.582-8,8-8c25.12,0,38.325,7.369,49.975,13.871c10.913,6.09,21.221,11.843,42.178,11.843
	c20.958,0,31.267-5.752,42.18-11.843c8.119-4.531,17.179-9.569,30.466-12.136v-53.8c0-2.934,1.606-5.632,4.185-7.032
	c2.579-1.398,5.717-1.274,8.176,0.325c2.842,1.847,61.016,39.997,92.577,84.265c2.167,0.141,4.413,0.221,6.733,0.221
	c20.96,0,31.27-5.752,42.184-11.843c11.652-6.502,24.858-13.871,49.98-13.871s38.328,7.369,49.98,13.871
	c10.914,6.091,21.224,11.843,42.185,11.843c4.418,0,8,3.582,8,8s-3.582,8-8,8c-25.123,0-38.329-7.369-49.981-13.871
	c-10.914-6.09-21.224-11.843-42.184-11.843s-31.27,5.752-42.184,11.843c-11.122,6.206-23.668,13.197-46.632,13.821
	c0.936,1.768,1.821,3.54,2.642,5.315c9.076,19.633,15.657,43.482,18.733,55.764c5.52-1.842,10.212-4.24,14.941-6.85
	c3.867-2.134,8.734-0.73,10.87,3.138c2.135,3.868,0.73,8.734-3.138,10.87c-11.872,6.553-24.43,12.435-47.396,12.435
	c-25.121,0-38.327-7.37-49.979-13.871c-10.914-6.091-21.223-11.843-42.182-11.843c-20.958,0-31.267,5.752-42.18,11.843
	c-11.651,6.502-24.856,13.872-49.977,13.872c-25.12,0-38.325-7.37-49.975-13.872C39.265,266.749,28.957,260.996,8,260.996
	c-4.418,0-8-3.582-8-8c0-4.418,3.582-8,8-8c25.12,0,38.325,7.37,49.975,13.872c10.913,6.09,21.221,11.843,42.178,11.843
	c20.958,0,31.267-5.752,42.18-11.843C150.521,254.299,159.482,249.305,172.8,246.737z M188.8,245.051
	c1.147-0.033,2.311-0.055,3.511-0.055c25.121,0,38.327,7.369,49.978,13.871c10.914,6.091,21.224,11.843,42.183,11.843
	c3.256,0,6.234-0.146,9.014-0.4c-3.02-11.918-9.263-34.324-17.547-52.243c-2.482-5.37-5.639-10.757-9.267-16.096
	c-0.015-0.023-0.031-0.045-0.046-0.068c-21.082-30.983-58.471-60.268-77.825-74.277v44.356c0.005,0.038,0.014,0.074,0.018,0.112
	c0.069,0.629,0.055,1.247-0.018,1.849V245.051z M468.8,356.49c-20.961,0-31.271-5.753-42.185-11.843
	c-11.652-6.502-24.858-13.871-49.98-13.871s-38.328,7.37-49.98,13.871c-10.914,6.091-21.224,11.843-42.184,11.843
	c-20.959,0-31.269-5.752-42.183-11.843c-11.651-6.501-24.857-13.871-49.978-13.871c-25.121,0-38.326,7.37-49.977,13.871
	c-10.914,6.091-21.222,11.843-42.18,11.843c-20.957,0-31.265-5.752-42.178-11.843C46.325,338.145,33.12,330.775,8,330.775
	c-4.418,0-8,3.582-8,8s3.582,8,8,8c20.957,0,31.265,5.752,42.178,11.843c11.65,6.502,24.855,13.872,49.975,13.872
	c25.121,0,38.326-7.37,49.977-13.872c10.914-6.09,21.222-11.843,42.18-11.843c20.959,0,31.268,5.752,42.182,11.843
	c11.652,6.502,24.858,13.872,49.979,13.872c25.122,0,38.328-7.369,49.98-13.871c10.914-6.09,21.224-11.843,42.184-11.843
	s31.27,5.752,42.184,11.843c11.652,6.501,24.858,13.871,49.981,13.871c4.418,0,8-3.582,8-8S473.218,356.49,468.8,356.49z"/>
</svg>